# xmcd
#
# Track frame offsets: 
#        150
#        16391
#        35586
#        55989
#        73832
#        93946
#        112284
#        132600
#        150548
#        168503
#        185650
#        204810
#
# Disc length: 2954 seconds
#
# Revision: 0
# Processed by: cddbd v1.5.2PL0 Copyright (c) Steve Scherf et al.
# Submitted via: ExactAudioCopyFreeDBPlugin 1.0
#
DISCID=ac0b880c
DTITLE=Tenry Johns - The King Kong Rocker - Moving On
DYEAR=2008
DGENRE=Blues
TTITLE0=Move On..Don't Stop
TTITLE1=You' Allright
TTITLE2=What's Wrong
TTITLE3=I Ain't Gonna Cheat
TTITLE4=You' All I Need
TTITLE5=I Ain't Coming Back
TTITLE6=Get Out Of That Mess
TTITLE7=I'm In Love
TTITLE8=Live Your Life
TTITLE9=You Got The Blues
TTITLE10=Just Like You
TTITLE11=Rockin' In America
EXTD=
EXTT0=
EXTT1=
EXTT2=
EXTT3=
EXTT4=
EXTT5=
EXTT6=
EXTT7=
EXTT8=
EXTT9=
EXTT10=
EXTT11=
PLAYORDER=
